<svg width="34" height="29" viewBox="0 0 34 29" xmlns="http://www.w3.org/2000/svg"><path d="M17.09 26.025a11.477 11.477 0 0 1-7.582-2.867l-.437-.385-4.493.34 1.93-4.038-.21-.559a11.644 11.644 0 0 1-.744-4.109c0-1.345.238-2.683.69-3.943l10.847 8.087 10.847-8.087c.45 1.26.69 2.598.69 3.943 0 6.406-5.176 11.618-11.537 11.618m0-23.235c3.877 0 7.444 1.95 9.576 5.15l-9.576 7.14-9.577-7.14c2.131-3.2 5.7-5.15 9.577-5.15M29.728 7.65C27.235 2.931 22.392 0 17.09 0 11.789 0 6.946 2.932 4.454 7.651a14.514 14.514 0 0 0-.95 11.277L0 26.256l8.139-.614a14.234 14.234 0 0 0 8.952 3.172c7.889 0 14.307-6.463 14.307-14.407 0-2.35-.578-4.687-1.67-6.756" fill="#FE9400" fill-rule="evenodd"/></svg>
