<svg width="50" height="50" viewBox="0 0 50 50" fill="none" xmlns="http://www.w3.org/2000/svg">
<g clip-path="url(#clip0_4008_2804)">
<path d="M50 0H0V50H50V0Z" fill="#9A78FC"/>
<path d="M24.921 11.6484C23.6242 11.6484 22.5717 12.7009 22.5717 13.9977V36.0025C22.5717 37.2993 23.6242 38.3517 24.921 38.3517C26.2178 38.3517 27.2702 37.2993 27.2702 36.0025V13.9977C27.2702 12.7009 26.2178 11.6484 24.921 11.6484ZM16.6516 15.9022C15.3548 15.9022 14.3023 16.9547 14.3023 18.2514V26.6054C14.3023 27.7628 13.8512 28.8498 13.0337 29.6689L8.35709 34.3408C7.43931 35.257 7.43774 36.7448 8.35552 37.6626C8.41347 37.7206 8.47298 37.7738 8.53406 37.8239C8.96476 38.1763 9.491 38.3517 10.0172 38.3517C10.6186 38.3517 11.2185 38.1231 11.6774 37.6642L16.9836 32.3642C18.2851 31.0643 19.0024 29.3353 19.0024 27.4966V18.253C19.0024 16.9562 17.9499 15.9037 16.6531 15.9037L16.6516 15.9022ZM36.9649 29.6657L41.643 34.3392L41.6446 34.3361C42.5624 35.2523 42.5624 36.7401 41.6462 37.6579C41.1873 38.1168 40.5859 38.347 39.9845 38.347C39.383 38.347 38.7832 38.1168 38.3243 37.6595L33.0181 32.3611C31.7166 31.0612 30.9993 29.3321 30.9993 27.4934V18.2499C30.9993 16.9531 32.0518 15.9006 33.3486 15.9006C34.6454 15.9006 35.6978 16.9531 35.6978 18.2499V26.6039C35.6978 27.7613 36.1473 28.8482 36.9649 29.6657Z" fill="#1E1B25"/>
</g>
<defs>
<clipPath id="clip0_4008_2804">
<rect width="50" height="50" rx="10" fill="white"/>
</clipPath>
</defs>
</svg>
