<svg xmlns="http://www.w3.org/2000/svg" viewBox="0 0 43 13" role="img" aria-label="Mollie logo">
  <rect width="43" height="13" rx="2" fill="#ffffff"/>
  <path d="M30.4301 1.36338C30.4301 0.610458 31.0134 0 31.7331 0C32.4528 0 33.0362 0.610458 33.0362 1.36338C33.0362 2.11683 32.4528 2.72729 31.7331 2.72729C31.0134 2.72729 30.4301 2.11683 30.4301 1.36338ZM11.667 5.48654C12.2793 6.19992 12.6179 7.12292 12.6179 8.08167V12.8093H10.6201V8.02263C10.6159 7.08175 9.87342 6.31367 8.96965 6.31367C8.91779 6.31367 8.86127 6.318 8.80476 6.32288C7.9969 6.409 7.3192 7.20904 7.3192 8.07246V12.8093H5.32135V8.03617C5.3172 7.09096 4.57883 6.318 3.67505 6.318C3.6232 6.318 3.56668 6.32288 3.51016 6.32721C2.70646 6.41388 2.02461 7.21338 2.02461 8.08167V12.8093H0.0703125V8.02263C0.0703125 5.93179 1.69898 4.23204 3.69683 4.23204C4.69602 4.23204 5.64698 4.66808 6.3335 5.4275C7.0195 4.66375 7.97513 4.23204 8.98261 4.23204C9.0915 4.23204 9.19572 4.23638 9.30409 4.24558C10.2162 4.32738 11.0546 4.76829 11.667 5.48654ZM25.0878 12.818H23.0899V0.20475H25.0878V12.818ZM28.9098 12.818H26.9119V0.20475H28.9098V12.818ZM32.7323 12.8137H30.7345V4.44979H32.7323V12.8137ZM42.0703 9.37733H35.9938C36.2634 10.3865 37.1408 11.0955 38.1571 11.0955C38.9519 11.0955 39.6685 10.6725 40.0813 9.95908L40.1637 9.81825L41.8142 10.6681L41.7188 10.8366C40.9669 12.1593 39.5902 12.9816 38.1223 12.9816H38.1176C36.9971 12.9816 35.9461 12.5179 35.1512 11.6773C34.3563 10.8366 33.9265 9.72725 33.9394 8.55454C33.9524 7.40458 34.3869 6.32721 35.16 5.51363C35.9331 4.70004 36.9671 4.24558 38.0616 4.23204H38.1135C39.1692 4.23204 40.1591 4.67296 40.9104 5.46813C41.6576 6.26383 42.0703 7.30925 42.0703 8.41804V9.37733ZM36.0244 7.64996H40.0507C39.7639 6.75892 38.9473 6.13167 38.0352 6.13167C37.1231 6.13167 36.3065 6.75892 36.0244 7.64996ZM22.013 8.61358C22.013 11.0229 20.1365 12.9865 17.8348 12.9865C15.5325 12.9865 13.656 11.0229 13.656 8.61358C13.656 6.20479 15.5284 4.24071 17.8348 4.24071C20.1406 4.24071 22.013 6.20479 22.013 8.61358ZM20.0322 8.61792C20.0322 7.34988 19.0465 6.318 17.8348 6.318C16.623 6.318 15.6368 7.34988 15.6368 8.61792C15.6368 9.8865 16.623 10.9184 17.8348 10.9184C19.0465 10.9184 20.0322 9.8865 20.0322 8.61792Z" fill="#161819"/>
</svg>
