<svg width="120" height="32" viewBox="0 0 120 32" fill="none" xmlns="http://www.w3.org/2000/svg">
<path d="M50 24C50 21.5 48.8 19.2 47 17.8C46.3 19.2 45 20.4 43.5 21C45.6 19.9 47.1 17.6 47.1 15C47.1 11.3 44.1 8.3 40.4 8.3C40.1 8.3 39.9 8.3 39.6 8.3C40.5 10.3 41 12.5 41 14.9C41 15.1 41 15.2 41 15.4C40.7 6.9 33.7 0 25 0C16.3 0 9.3 6.9 9 15.4C9 15.3 9 15.1 9 15C9 12.6 9.5 10.4 10.4 8.4C4.5 9.2 0 14.1 0 20.2C0 26.7 5.4 32 11.9 32H42.1C46.5 31.9 50 28.4 50 24Z" fill="url(#paint0_linear_677_936)"/>
<path fill-rule="evenodd" clip-rule="evenodd" d="M12.2031 15.9992C12.2031 8.92997 17.9339 3.19922 25.0031 3.19922C32.0724 3.19922 37.8031 8.92998 37.8031 15.9992C37.8031 23.0685 32.0724 28.7992 25.0031 28.7992C17.9339 28.7992 12.2031 23.0685 12.2031 15.9992ZM25.0031 4.77131C18.8021 4.77131 13.7752 9.79822 13.7752 15.9992C13.7752 22.2002 18.8021 27.2271 25.0031 27.2271C31.2041 27.2271 36.231 22.2002 36.231 15.9992C36.231 9.79822 31.2041 4.77131 25.0031 4.77131ZM19.3008 10.6646V21.3716C19.3008 21.9186 19.5181 22.4432 19.9049 22.83C20.2917 23.2168 20.8163 23.4341 21.3633 23.4341C21.9103 23.4341 22.4349 23.2168 22.8217 22.83C23.2085 22.4432 23.4258 21.9186 23.4258 21.3716V19.3126H27.2638C28.6622 19.2795 29.9922 18.7007 30.9695 17.6999C31.9469 16.6992 32.494 15.3559 32.494 13.9571C32.494 12.5583 31.9469 11.2149 30.9695 10.2142C29.9922 9.21343 28.6622 8.63466 27.2638 8.60156H21.3638C20.8166 8.60156 20.2919 8.81891 19.905 9.2058C19.5181 9.59269 19.3008 10.1174 19.3008 10.6646ZM27.7712 15.482C27.571 15.5649 27.3565 15.6076 27.1398 15.6076H23.4258V12.3076H27.1398C27.3565 12.3076 27.571 12.3502 27.7712 12.4332C27.9714 12.5161 28.1533 12.6376 28.3065 12.7908C28.4597 12.9441 28.5813 13.1259 28.6642 13.3261C28.7471 13.5263 28.7898 13.7409 28.7898 13.9576C28.7898 14.1742 28.7471 14.3888 28.6642 14.589C28.5813 14.7892 28.4597 14.9711 28.3065 15.1243C28.1533 15.2775 27.9714 15.399 27.7712 15.482Z" fill="white"/>
<path d="M56.8008 13.4504C56.8008 12.7838 57.3019 12.2005 57.9701 12.2005C58.6382 12.2005 59.2229 12.7005 59.2229 13.4504V14.1171C59.9746 13.0338 61.1439 12.1172 62.8143 12.1172C65.3199 12.1172 67.742 14.1171 67.742 17.6169C67.742 21.1167 65.3199 23.1166 62.8143 23.1166C61.0603 23.1166 59.9746 22.2 59.2229 21.2834V25.0332C59.2229 25.6998 58.7218 26.1998 57.9701 26.1998C57.3019 26.1998 56.8008 25.6998 56.8008 25.0332V13.4504ZM65.3199 17.6169C65.3199 15.5337 63.9 14.2004 62.3132 14.2004C60.6427 14.2004 59.2229 15.5337 59.2229 17.6169C59.2229 19.6168 60.6427 21.0334 62.3132 21.0334C63.9 21.0334 65.3199 19.7001 65.3199 17.6169Z" fill="#1C1D1F"/>
<path d="M68.6338 15.5653C68.6338 11.4463 71.7231 8.09961 76.0995 8.09961C78.3307 8.09961 79.7895 8.78611 81.0767 9.73006C81.3341 9.90168 81.5915 10.2449 81.5915 10.7598C81.5915 11.4463 81.0767 11.9612 80.3043 11.9612C79.9611 11.9612 79.7037 11.8754 79.532 11.7038C78.5023 10.9314 77.4725 10.4166 76.0995 10.4166C73.3535 10.4166 71.3798 12.6477 71.3798 15.4795C71.3798 18.3113 73.3535 20.6283 76.0995 20.6283C77.6441 20.6283 78.6739 20.1134 79.7037 19.2553C79.8753 19.0837 80.1327 18.9979 80.476 18.9979C81.0767 18.9979 81.6774 19.5127 81.6774 20.1992C81.6774 20.6283 81.5057 20.8857 81.2483 21.1432C79.8753 22.3446 78.3307 23.1169 76.0137 23.1169C71.7231 22.9452 68.6338 19.6844 68.6338 15.5653Z" fill="#1C1D1F"/>
<path d="M82.7256 9.36582C82.7256 8.69919 83.2267 8.19922 83.8949 8.19922C84.563 8.19922 85.1477 8.69919 85.1477 9.36582V21.7818C85.1477 22.4484 84.6466 22.9484 83.8949 22.9484C83.2267 22.9484 82.7256 22.4484 82.7256 21.7818V9.36582Z" fill="#1C1D1F"/>
<path d="M86.1494 17.7002C86.1494 14.6171 88.5715 12.1172 91.8288 12.1172C95.0861 12.1172 97.4247 14.6171 97.4247 17.6169C97.4247 20.6167 95.0026 23.1166 91.7453 23.1166C88.488 23.1166 86.1494 20.7001 86.1494 17.7002ZM95.0026 17.7002C95.0026 15.7837 93.6663 14.2837 91.7453 14.2837C89.8243 14.2837 88.5715 15.7837 88.5715 17.6169C88.5715 19.4501 89.9078 21.0334 91.8288 21.0334C93.7498 21.0334 95.0026 19.5335 95.0026 17.7002Z" fill="#1C1D1F"/>
<path d="M108.05 21.782C108.05 22.4487 107.549 22.9486 106.797 22.9486C106.129 22.9486 105.545 22.4487 105.545 21.782V21.2821C104.876 22.282 103.874 23.1153 102.204 23.1153C99.7816 23.1153 98.4453 21.532 98.4453 19.0322V13.4492C98.4453 12.7825 98.9464 12.1992 99.6146 12.1992C100.283 12.1992 100.867 12.6992 100.867 13.4492V18.3656C100.867 20.0321 101.703 20.9487 103.122 20.9487C104.542 20.9487 105.545 19.9488 105.545 18.3656V13.5325C105.545 12.8658 106.046 12.2825 106.797 12.2825C107.466 12.2825 108.05 12.7825 108.05 13.5325V21.782Z" fill="#1C1D1F"/>
<path d="M120.001 21.7818C120.001 22.4484 119.5 22.9484 118.831 22.9484C118.163 22.9484 117.579 22.4484 117.579 21.7818V21.1152C116.827 22.1985 115.658 23.1151 113.987 23.1151C111.482 23.1151 109.06 21.1152 109.06 17.6154C109.06 14.1156 111.482 12.1157 113.987 12.1157C115.741 12.1157 116.827 12.949 117.579 13.9489V9.36582C117.579 8.69919 118.08 8.19922 118.748 8.19922C119.416 8.19922 120.001 8.69919 120.001 9.36582V21.7818ZM111.482 17.6154C111.482 19.6986 112.902 21.0319 114.488 21.0319C116.075 21.0319 117.579 19.6986 117.579 17.6154C117.579 15.6155 116.159 14.1989 114.488 14.1989C112.902 14.1989 111.482 15.5322 111.482 17.6154Z" fill="#1C1D1F"/>
<defs>
<linearGradient id="paint0_linear_677_936" x1="14.9992" y1="5.99978" x2="48.4978" y2="27.9985" gradientUnits="userSpaceOnUse">
<stop stop-color="#17B8CA"/>
<stop offset="0.5" stop-color="#17BED0"/>
<stop offset="1" stop-color="#1CD2E6"/>
</linearGradient>
</defs>
</svg>
