<svg xmlns="http://www.w3.org/2000/svg" viewBox="0 0 32 10" role="img" aria-label="Saleor logo">
  <rect width="32" height="10" rx="1.5" fill="#ffffff"/>
  <path fill-rule="evenodd" clip-rule="evenodd" d="M31.7028 0.869141H31.2457L25.4688 6.8123H26.3L31.8691 1.07694C31.8691 0.993822 31.8691 0.910701 31.7028 0.910701V0.869141Z" fill="#161819"/>
  <path fill-rule="evenodd" clip-rule="evenodd" d="M29.3326 0.869141L23.5557 6.85386H24.3869L30.1638 0.869141H29.3326Z" fill="#161819"/>
  <path fill-rule="evenodd" clip-rule="evenodd" d="M28.3362 0.869141H27.505L25.5932 2.86405H24.5542L26.4244 0.869141H25.6348L23.723 2.86405H22.6424L24.5542 0.869141H23.7646L21.8528 2.86405H20.7722L22.684 0.869141H21.8528L19.941 2.86405H18.902L20.8138 0.869141H19.9825L18.0708 2.86405H16.9902L18.9435 0.869141H18.1539L16.2005 2.86405H6.18443C6.14286 2.86405 6.05974 2.86405 6.01818 2.90561L0.0334588 8.89033C-0.0496623 8.97345 0.0334588 9.18126 0.158141 9.18126H19.5669C19.6085 9.18126 19.6916 9.18126 19.7332 9.1397L22.019 6.85386H22.5177L28.3362 0.869141ZM19.2344 8.1838H2.36085C2.27773 8.1838 2.23617 8.10068 2.31929 8.05912L6.47535 3.8615H15.2031L13.3328 5.77329L12.5848 6.52138C12.5016 6.6045 12.5848 6.77074 12.7094 6.77074H13.125L15.9927 3.81994H17.0733L14.1641 6.8123H14.9953L17.9045 3.81994H18.9435L16.0343 6.8123H16.8655L19.7747 3.81994H20.8138L17.9045 6.8123H18.7357L21.645 3.81994H22.684L19.7747 6.8123H20.5228L19.1929 8.14224L19.2344 8.1838Z" fill="#161819"/>
</svg>
