<svg width="137" height="20" viewBox="0 0 137 20" fill="none" xmlns="http://www.w3.org/2000/svg">
<g clip-path="url(#clip0)">
<path d="M30.205 19.5839C29.2162 19.321 28.4521 18.9924 27.9352 18.62C27.5306 18.3352 27.3284 18.0724 27.3284 17.8095C27.3284 17.5247 27.4857 17.1523 27.7778 16.7142C28.0925 16.2542 28.3397 16.0351 28.5195 16.0351C28.6543 16.0351 28.8791 16.1446 29.1712 16.3418C29.8005 16.6485 30.4297 16.9113 31.059 17.1304C31.6883 17.3276 32.4074 17.4371 33.2614 17.4371C34.2503 17.4371 35.0818 17.1742 35.7336 16.6704C36.3853 16.1666 36.7224 15.4437 36.7224 14.5236C36.7224 13.9322 36.5651 13.4283 36.228 13.034C35.9133 12.6397 35.4863 12.3111 35.0144 12.0483C34.52 11.8073 33.8458 11.5006 32.9918 11.1282L32.3625 10.8873C31.3736 10.4929 30.5646 10.0986 29.9129 9.70434C29.2836 9.31003 28.7442 8.76239 28.3172 8.0614C27.8902 7.36042 27.6655 6.46228 27.6655 5.32318C27.6655 4.24979 27.9576 3.30784 28.5195 2.49733C29.0813 1.68681 29.8454 1.07345 30.8343 0.657241C31.8006 0.219125 32.9243 0.0219727 34.1604 0.0219727C34.902 0.0219727 35.6661 0.109596 36.4752 0.306748C37.2618 0.5039 37.891 0.744864 38.363 1.02964C38.7675 1.2706 38.9698 1.53347 38.9698 1.81825C38.9698 2.08112 38.8349 2.43161 38.5428 2.89163C38.2731 3.35166 38.0259 3.57071 37.8461 3.57071C37.7562 3.57071 37.464 3.46118 37.0146 3.24213C36.1381 2.82592 35.2167 2.62876 34.2503 2.62876C33.1715 2.62876 32.34 2.86973 31.7332 3.35166C31.1264 3.83358 30.8343 4.49076 30.8343 5.30127C30.8343 5.89273 30.9916 6.37466 31.3062 6.74706C31.6209 7.11945 32.0029 7.40423 32.4299 7.62329C32.8794 7.82044 33.5536 8.10522 34.4975 8.45571C35.6212 8.89382 36.5426 9.31003 37.2618 9.70434C37.9809 10.0986 38.5877 10.6901 39.1046 11.4349C39.6215 12.1797 39.8687 13.1655 39.8687 14.3265C39.8687 16.1446 39.2844 17.5247 38.0933 18.5105C36.9022 19.4962 35.374 19.9782 33.4637 19.9782C32.2951 19.9782 31.1939 19.8467 30.205 19.5839Z" fill="#6573FF"/>
<path d="M44.6778 19.0362C43.9137 18.401 43.5541 17.3714 43.5541 15.9256V7.53568H42.4079C42.1832 7.53568 42.0034 7.44806 41.9135 7.29472C41.8012 7.14138 41.7562 6.87851 41.7562 6.52801V6.15561C41.7562 5.80512 41.8012 5.54225 41.9135 5.38891C42.0259 5.23557 42.1832 5.14795 42.4079 5.14795H43.5541L43.9362 2.30019C44.0036 1.84017 44.3632 1.59921 45.0374 1.59921H45.4868C46.1835 1.59921 46.5206 1.84017 46.5206 2.30019V5.14795H48.6556C48.8804 5.14795 49.0602 5.23557 49.1501 5.38891C49.2624 5.54225 49.3074 5.80512 49.3074 6.15561V6.52801C49.3074 6.87851 49.2624 7.14138 49.1501 7.29472C49.0377 7.44806 48.8804 7.53568 48.6556 7.53568H46.5206V15.7942C46.5206 16.4732 46.633 16.9333 46.8802 17.218C47.1274 17.4809 47.4645 17.6343 47.9365 17.6343C48.2062 17.6343 48.4309 17.6123 48.6107 17.5685C48.7905 17.5247 48.9253 17.5028 49.0377 17.5028C49.24 17.5028 49.3973 17.7 49.5321 18.0943C49.667 18.4886 49.7344 18.7953 49.7344 19.0143C49.7344 19.6934 48.9703 20.022 47.4421 20.022C46.3408 19.9782 45.4419 19.6715 44.6778 19.0362Z" fill="#6573FF"/>
<path d="M53.1505 18.9048C52.319 18.1819 51.892 17.1523 51.892 15.816C51.892 13.9321 52.701 12.6178 54.2967 11.8511C55.9148 11.1063 58.1622 10.712 61.0388 10.6901V9.48526C61.0388 8.82809 60.8141 8.30235 60.3421 7.90804C59.8926 7.51374 59.151 7.31659 58.1397 7.31659C57.3531 7.31659 56.6789 7.40421 56.0946 7.57946C55.5103 7.7547 55.0158 7.95186 54.6113 8.14901C54.2068 8.34616 53.9596 8.43378 53.9146 8.43378C53.7123 8.43378 53.4651 8.21473 53.173 7.77661C52.9033 7.33849 52.746 7.00991 52.746 6.79085C52.746 6.52798 52.9932 6.26511 53.5101 5.95843C54.027 5.67365 54.6787 5.43269 55.5103 5.23554C56.3418 5.03838 57.2183 4.95076 58.1622 4.95076C60.0499 4.95076 61.4883 5.34507 62.4771 6.13367C63.466 6.92228 63.9604 8.01757 63.9604 9.41954V15.3998C63.9604 16.6485 64.0278 17.5466 64.1402 18.1161C64.2525 18.6857 64.32 18.9924 64.32 19.0581C64.32 19.321 64.0952 19.4962 63.6233 19.6276C63.1513 19.7372 62.7243 19.8029 62.3198 19.8029C62.0052 19.8029 61.8029 19.6715 61.6681 19.3867C61.5332 19.1019 61.4433 18.8171 61.3759 18.4885C61.3085 18.1819 61.2635 17.9628 61.2411 17.8533C60.7242 18.4447 60.0724 18.9486 59.3083 19.3648C58.5442 19.781 57.6228 19.9781 56.589 19.9781C55.1507 19.9781 54.0045 19.6276 53.1505 18.9048ZM59.3083 17.0647C59.9376 16.7361 60.5219 16.2761 61.0613 15.6846V12.9026C59.196 12.9026 57.7127 13.0778 56.6115 13.4283C55.5103 13.7788 54.9484 14.5017 54.9484 15.597C54.9484 16.2322 55.1282 16.7142 55.5103 17.0647C55.8923 17.4152 56.4092 17.5904 57.1059 17.5904C57.9374 17.5685 58.6791 17.4152 59.3083 17.0647Z" fill="#6573FF"/>
<path d="M68.0282 19.2772V9.6167C68.0282 8.38997 67.9607 7.49183 67.8484 6.92228C67.736 6.35273 67.6686 6.04605 67.6686 5.98033C67.6686 5.71746 67.9158 5.54222 68.3877 5.41078C68.8597 5.30125 69.3092 5.23554 69.7137 5.23554C70.0058 5.23554 70.2081 5.36697 70.3205 5.62984C70.4553 5.89271 70.5452 6.17749 70.6126 6.46226C70.6801 6.76894 70.725 6.9661 70.7475 7.07562C71.7138 5.65175 72.8151 4.95076 74.0286 4.95076C74.5905 4.95076 74.995 5.0822 75.2872 5.32316C75.5569 5.56412 75.7142 5.8489 75.7142 6.19939C75.7142 6.54988 75.6468 6.90038 75.5119 7.31659C75.3771 7.7328 75.2198 7.92995 75.0624 7.92995C74.9501 7.92995 74.7478 7.88614 74.4781 7.79851C74.2084 7.71089 73.8938 7.66708 73.5342 7.66708C72.9499 7.66708 72.4105 7.86423 71.9611 8.23663C71.5116 8.60903 71.1745 8.95952 70.9722 9.28811V19.2772C70.9722 19.7372 70.5452 19.9781 69.6912 19.9781H69.3766C68.4552 19.9781 68.0282 19.7591 68.0282 19.2772Z" fill="#6573FF"/>
<path d="M80.1189 19.0362C79.3548 18.401 78.9952 17.3714 78.9952 15.9256V7.53568H77.8491C77.6243 7.53568 77.4446 7.44806 77.3547 7.29472C77.2423 7.14138 77.1973 6.87851 77.1973 6.52801V6.15561C77.1973 5.80512 77.2423 5.54225 77.3547 5.38891C77.467 5.23557 77.6243 5.14795 77.8491 5.14795H78.9952L79.3773 2.30019C79.4447 1.84017 79.8043 1.59921 80.4785 1.59921H80.928C81.6247 1.59921 81.9618 1.84017 81.9618 2.30019V5.14795H84.0743C84.299 5.14795 84.4788 5.23557 84.5687 5.38891C84.6811 5.54225 84.726 5.80512 84.726 6.15561V6.52801C84.726 6.87851 84.6811 7.14138 84.5687 7.29472C84.4564 7.44806 84.299 7.53568 84.0743 7.53568H81.9618V15.7942C81.9618 16.4732 82.0741 16.9333 82.3214 17.218C82.5686 17.4809 82.9057 17.6343 83.3776 17.6343C83.6473 17.6343 83.872 17.6123 84.0518 17.5685C84.2316 17.5247 84.3665 17.5028 84.4788 17.5028C84.6811 17.5028 84.8384 17.7 84.9733 18.0943C85.1081 18.4886 85.1755 18.7953 85.1755 19.0143C85.1755 19.6934 84.4114 20.022 82.8832 20.022C81.782 19.9782 80.883 19.6715 80.1189 19.0362Z" fill="#6573FF"/>
<path d="M98.0977 10.8653L103.986 0.591457C104.188 0.197152 104.66 0 105.357 0H106.458C107.334 0 107.784 0.240964 107.784 0.700986V19.299C107.784 19.759 107.334 20 106.458 20H106.076C105.199 20 104.75 19.759 104.75 19.299V6.48412C104.75 5.80504 104.75 4.97262 104.75 4.97262L99.4012 13.9759C99.2214 14.2607 98.9742 14.3921 98.6371 14.3921H97.5808C97.2437 14.3921 96.974 14.2607 96.8167 13.9759L91.423 4.86309C91.423 4.86309 91.423 5.6736 91.423 6.35268V19.299C91.423 19.759 90.9735 20 90.097 20H89.715C88.8385 20 88.389 19.759 88.389 19.299V0.700986C88.389 0.240964 88.8385 0 89.715 0H90.8836C91.5803 0 92.0298 0.197152 92.2545 0.591457L98.0977 10.8653Z" fill="#202945"/>
<path d="M112.279 18.9047C111.447 18.1818 111.02 17.1522 111.02 15.8159C111.02 13.9321 111.829 12.6177 113.425 11.851C115.043 11.1062 117.291 10.7119 120.167 10.69V9.48517C120.167 8.828 119.942 8.30226 119.471 7.90796C119.021 7.51365 118.279 7.3165 117.268 7.3165C116.481 7.3165 115.807 7.40412 115.223 7.57937C114.639 7.75462 114.144 7.95177 113.74 8.14892C113.335 8.34607 113.088 8.4337 113.043 8.4337C112.841 8.4337 112.594 8.21464 112.301 7.77652C112.032 7.33841 111.874 7.00982 111.874 6.79076C111.874 6.52789 112.122 6.26502 112.638 5.95834C113.155 5.67357 113.807 5.4326 114.639 5.23545C115.47 5.0383 116.347 4.95067 117.291 4.95067C119.178 4.95067 120.617 5.34498 121.606 6.13359C122.594 6.9222 123.089 8.01749 123.089 9.41946V15.3997C123.089 16.6484 123.156 17.5465 123.269 18.1161C123.381 18.6856 123.448 18.9923 123.448 19.058C123.448 19.3209 123.224 19.4961 122.752 19.6276C122.28 19.7371 121.853 19.8028 121.448 19.8028C121.134 19.8028 120.931 19.6714 120.796 19.3866C120.662 19.1018 120.572 18.817 120.504 18.4885C120.437 18.1818 120.392 17.9627 120.369 17.8532C119.853 18.4446 119.201 18.9485 118.437 19.3647C117.673 19.7809 116.751 19.9781 115.717 19.9781C114.279 19.9781 113.11 19.6276 112.279 18.9047ZM118.414 17.0646C119.044 16.736 119.628 16.276 120.167 15.6845V12.9025C118.302 12.9025 116.819 13.0777 115.717 13.4282C114.616 13.7787 114.054 14.5016 114.054 15.5969C114.054 16.2322 114.234 16.7141 114.616 17.0646C114.998 17.4151 115.515 17.5903 116.212 17.5903C117.043 17.5684 117.785 17.4151 118.414 17.0646Z" fill="#202945"/>
<path d="M127.089 2.43154V0.788609C127.089 0.26287 127.606 0 128.64 0C129.629 0 130.123 0.26287 130.123 0.788609V2.43154C130.123 2.95728 129.606 3.22015 128.572 3.22015C127.583 3.22015 127.089 2.95728 127.089 2.43154ZM127.134 19.2771V5.6736C127.134 5.21358 127.583 4.97262 128.46 4.97262H128.752C129.629 4.97262 130.078 5.21358 130.078 5.6736V19.2771C130.078 19.7371 129.629 19.9781 128.752 19.9781H128.46C127.583 19.9781 127.134 19.759 127.134 19.2771Z" fill="#202945"/>
<path d="M135.696 0H135.382C134.528 0 134.101 0.240964 134.101 0.700986V19.2771C134.101 19.7371 134.55 19.9781 135.427 19.9781H135.719C136.595 19.9781 137.045 19.7371 137.045 19.2771V0.700986C137 0.240964 136.573 0 135.696 0Z" fill="#202945"/>
<path d="M20.4738 1.90604C20.4738 0.854561 19.5983 0.0221406 18.5432 0.0221406H1.95332C0.87576 0.000234787 0.000244141 0.854561 0.000244141 1.90604V3.6585C0.000244141 3.6585 7.63294 10.8655 10.2595 10.8655C13.0881 10.8655 20.4738 3.70231 20.4738 3.70231C20.4738 3.70231 20.4738 2.27844 20.4738 1.90604Z" fill="#6573FF"/>
<path d="M0 18.0943C0 19.1458 0.876477 19.9782 1.93274 19.9782H18.5409C19.6196 19.9782 20.4736 19.1239 20.4736 18.0943V5.71753C20.4736 5.71753 13.9562 13.0779 10.248 13.0779C6.58481 13.0779 0 7.14141 0 7.14141C0 9.46342 0 15.7942 0 18.0943Z" fill="#202945"/>
</g>
<defs>
<clipPath id="clip0">
<rect width="137" height="20" fill="white"/>
</clipPath>
</defs>
</svg>
